<svg width="1343" height="1343" viewBox="0 0 1343 1343" fill="none" xmlns="http://www.w3.org/2000/svg">
<rect width="1343" height="1343" fill="black"/>
<path d="M794.924 752.196C794.924 894.572 709.431 965.76 538.447 965.76C453.952 965.76 369.79 955.781 285.961 935.821L293.945 754.192L523.477 798.102V780.139C478.901 770.824 442.642 761.51 414.699 752.196C386.756 742.216 360.809 728.577 336.858 711.279C290.286 678.014 267 625.121 267 552.603C267 479.418 288.955 423.532 332.866 384.944C377.441 346.356 440.646 327.062 522.479 327.062C604.312 327.062 689.805 334.048 778.956 348.02L759.995 546.615L537.449 512.684V531.645C626.6 543.621 691.801 565.243 733.05 596.513C774.299 627.117 794.924 679.012 794.924 752.196ZM1066.67 955.781H805.2V492.725H1066.67V955.781ZM805.2 400.912V389.934C805.2 338.04 842.79 312.093 917.97 312.093H948.906C1027.41 312.093 1066.67 338.04 1066.67 389.934V400.912C1066.67 453.471 1027.41 479.751 948.906 479.751H916.972C842.457 479.751 805.2 453.471 805.2 400.912Z" fill="white"/>
</svg>
